<?xml version="1.0" standalone="no"?>
<svg viewBox="0 0 200 200" xmlns="http://www.w3.org/2000/svg">
  <path fill="#031B88" d="M27.1,-48.7C38.9,-40,55.1,-40.6,67.5,-34C80,-27.4,88.8,-13.7,83.8,-2.9C78.8,7.9,60,15.9,49,25C38,34.1,34.8,44.5,28,56.6C21.1,68.7,10.5,82.7,-2.7,87.4C-16,92.1,-32,87.7,-39.3,75.8C-46.6,63.9,-45.2,44.6,-46.7,30.7C-48.2,16.9,-52.6,8.4,-56.1,-2C-59.6,-12.5,-62.2,-24.9,-56.1,-30.8C-50,-36.7,-35.2,-36.1,-24.4,-45.4C-13.6,-54.6,-6.8,-73.8,0.4,-74.5C7.6,-75.2,15.2,-57.3,27.1,-48.7Z" transform="translate(100 100)" />
</svg>
