<svg width="139" height="106" viewBox="0 0 139 106" fill="none" xmlns="http://www.w3.org/2000/svg">
<mask id="mask0_1505_13048" style="mask-type:alpha" maskUnits="userSpaceOnUse" x="26" y="0" width="87" height="87">
<rect x="26.5" y="0.5" width="86" height="86" rx="4.5" fill="white" stroke="white"/>
</mask>
<g mask="url(#mask0_1505_13048)">
<line x1="6.20703" y1="79.6716" x2="102.409" y2="-16.53" stroke="#509AD1" stroke-width="2" stroke-linecap="round"/>
<line x1="37.5273" y1="110.774" x2="133.729" y2="14.5725" stroke="#509AD1" stroke-width="2" stroke-linecap="round"/>
<line x1="-18.1523" y1="54.0066" x2="78.0492" y2="-42.195" stroke="#509AD1" stroke-width="2" stroke-linecap="round"/>
<line x1="-12.4971" y1="59.8791" x2="83.7045" y2="-36.3225" stroke="#509AD1" stroke-width="2" stroke-linecap="round"/>
<line x1="13.168" y1="85.7616" x2="109.37" y2="-10.44" stroke="#509AD1" stroke-width="2" stroke-linecap="round"/>
<line x1="44.4873" y1="116.864" x2="140.689" y2="20.6625" stroke="#509AD1" stroke-width="2" stroke-linecap="round"/>
<line x1="-6.84277" y1="67.2741" x2="89.3588" y2="-28.9275" stroke="#509AD1" stroke-width="2" stroke-linecap="round"/>
<line x1="20.7803" y1="90.9816" x2="116.982" y2="-5.21998" stroke="#509AD1" stroke-width="2" stroke-linecap="round"/>
<line x1="52.0996" y1="122.084" x2="148.301" y2="25.8825" stroke="#509AD1" stroke-width="2" stroke-linecap="round"/>
<line x1="0.552734" y1="72.929" x2="96.7543" y2="-23.2725" stroke="#509AD1" stroke-width="2" stroke-linecap="round"/>
<line x1="31.8721" y1="104.032" x2="128.074" y2="7.83001" stroke="#509AD1" stroke-width="2" stroke-linecap="round"/>
<line x1="26.6523" y1="97.2891" x2="122.854" y2="1.08752" stroke="#509AD1" stroke-width="2" stroke-linecap="round"/>
<line x1="57.9727" y1="128.392" x2="154.174" y2="32.19" stroke="#509AD1" stroke-width="2" stroke-linecap="round"/>
<line x1="64.2803" y1="131.872" x2="160.482" y2="35.67" stroke="#509AD1" stroke-width="2" stroke-linecap="round"/>
</g>
<g clip-path="url(#clip0_1505_13048)">
<path d="M139 72.052C137.763 74.6822 137.773 77.6917 136.467 80.3062C135.944 81.3533 135.503 82.4411 135.024 83.507C132.607 86.0995 129.949 88.41 126.991 90.363C126.22 90.874 125.56 91.4697 125.012 92.2095C124.84 92.3412 124.652 92.4415 124.451 92.5199C121.434 92.8772 118.71 94.2785 115.767 94.9902C110.551 96.2504 105.501 95.777 100.589 94.3569C97.4774 93.4572 94.6065 91.5794 91.8359 89.7705C90.9499 89.1906 90.042 88.6733 89.1247 88.156C88.2418 87.4287 87.6063 86.5917 87.9538 85.3472C88.5267 84.5039 89.3157 84.275 90.2737 84.5227C91.0595 84.8675 91.742 85.3754 92.3524 85.9616C96.5163 89.9586 101.666 91.4226 107.223 92.3098C111.973 93.0653 116.368 92.3035 120.56 90.3505C123.293 89.0746 126.374 88.0996 128.024 85.1779C133.233 80.4629 135.785 74.4345 136.574 67.5878C136.902 64.7351 137.244 61.8227 135.7 59.1329C135.49 58.7662 135.29 58.3116 135.396 57.9197C136.023 55.5999 134.623 53.9321 133.493 52.2612C132.288 50.4774 131.383 48.5306 129.692 47.0008C127.689 45.1857 125.56 43.6433 123.227 42.3423C122.539 41.9567 122.025 41.3674 121.374 40.9473C115.967 38.0412 110.366 37.3829 104.346 38.8531C100.552 39.778 97.1925 41.4677 93.8364 43.2953C92.8627 43.8251 92.4401 44.8597 91.7106 45.6152C86.9113 49.6341 84.1375 54.7378 83.264 60.9512C82.8883 63.619 82.5502 66.2461 82.9259 68.9453C83.527 73.2808 85.1393 77.212 87.4404 80.8956C87.193 82.5477 86.3728 83.67 84.6227 83.9302C83.1826 79.3062 80.4934 75.1618 79.7983 70.218C78.7214 62.5343 79.9079 55.3303 84.294 48.9789C89.1216 41.9881 95.5051 37.0318 104.202 35.5145C109.023 34.6743 113.741 34.7903 118.434 36.0286C121.099 36.7339 123.468 38.2011 125.945 39.3641C127.028 39.872 128.083 40.383 129.235 40.6933C134.489 46.3237 137.231 53.1358 138.568 60.6032C138.627 60.9418 138.565 61.318 138.997 61.4528C139 64.9764 139 68.5126 139 72.052Z" fill="#EC843B"/>
<path d="M16.464 62.7883C12.513 62.7883 8.56522 62.7977 4.61428 62.7851C2.12224 62.7757 0.0403253 60.8446 -0.000373816 58.5404C-0.0410729 56.2143 1.98449 54.2237 4.50471 54.2174C12.4755 54.1986 20.4462 54.1986 28.417 54.2237C31.2284 54.2331 32.6935 55.8664 32.6434 58.81C32.5996 61.412 31.0875 62.7914 28.3137 62.7883C24.3659 62.782 20.4149 62.7883 16.464 62.7883Z" fill="#D75656"/>
<path d="M129.235 40.6808C128.083 41.7624 126.837 40.7623 126.152 40.314C121.559 37.3139 116.663 35.6242 111.137 35.5176C106.084 35.4204 101.253 36.248 96.745 38.4676C92.9067 40.3579 89.3847 43.0696 86.7862 46.2798C82.9668 50.9978 80.2837 56.531 80.0427 62.9199C79.8893 66.9577 80.1867 70.9265 81.3889 74.7731C82.1778 77.2998 83.8527 79.4817 84.457 82.1025C84.5978 82.7138 84.6511 83.3471 84.745 83.9678C84.7544 84.4192 84.4789 84.5101 84.1032 84.4788C81.4452 83.3753 80.6469 80.7482 79.7421 78.4974C77.7667 73.5787 76.7022 68.4562 76.8807 63.0297C77.0059 59.2678 78.3552 55.9761 79.6764 52.6688C83.3863 43.3925 90.2613 37.2638 99.6158 34.1226C104.018 32.6429 108.695 32.3074 113.413 32.5488C117.348 32.7495 120.776 34.2229 124.198 35.8844C126.108 37.2387 127.855 38.7654 129.235 40.6808Z" fill="#EB813C"/>
<path d="M33.0214 78.7701C29.5683 78.792 26.112 78.8798 22.6588 78.814C20.8618 78.7795 19.2088 77.9738 18.6797 76.2089C18.1318 74.3843 18.0817 72.4313 19.9069 70.9986C20.5706 70.4751 21.2469 70.2839 22.0421 70.2901C29.2333 70.3246 36.4245 70.356 43.6157 70.3904C44.0102 70.6318 44.5581 70.6224 44.677 71.2682C45.0339 73.2181 45.0809 75.1869 45.0465 77.1556C45.0308 77.9425 44.533 78.4346 43.7566 78.6165C42.1631 78.6353 40.5696 78.6196 38.9729 78.6259C36.9912 78.7105 35 78.4378 33.0214 78.7701Z" fill="#D75656"/>
<path d="M124.201 35.8812C122.968 36.2982 121.819 35.6806 121.017 35.0693C118.359 33.041 115.197 33.2447 112.267 33.1037C105.955 32.7996 99.7064 33.7119 94.1839 37.0286C87.2838 41.173 82.1995 46.8221 79.4445 54.6751C77.9136 59.0451 77.0996 63.3337 77.5692 67.8261C78.1265 73.1711 79.7545 78.2371 82.6253 82.8266C83.0167 83.4536 83.743 83.8737 84.3159 84.3878C84.4881 85.3785 83.7242 85.7515 83.1137 86.228C81.0255 87.4036 81.0255 87.4036 80.6248 85.5289C80.0738 83.5383 79.0156 81.7953 78.0889 79.9739C74.6639 73.2338 74.2006 65.9482 75.6783 58.7975C77.1873 51.4869 80.5497 44.9474 86.3602 39.7685C89.5817 36.8969 92.9817 34.6022 96.9765 33.1225C97.7904 32.8215 98.426 32.2698 99.146 31.834C101.416 30.7494 103.811 30.4484 106.309 30.533C108.187 30.5989 110.003 29.6427 111.922 30.1004C112.931 29.9217 113.76 31.0221 114.818 30.5048C116.875 30.5707 118.378 31.8748 120.015 32.8623C121.496 33.7526 123.055 34.5332 124.201 35.8812Z" fill="#E97E3D"/>
<path d="M35.4538 46.6183C33.3907 46.3801 32.2981 45.286 32.1509 43.3141C31.9694 40.8595 33.0275 38.7465 35.0061 38.6337C39.5801 38.3735 44.176 38.1227 48.7499 38.781C48.9972 39.176 49.0974 39.7089 48.7436 39.9441C46.884 41.1761 47.6479 42.8815 47.8952 44.4552C48.1206 45.8973 47.4037 46.7374 46.1671 46.7468C42.6012 46.7688 39.0197 47.0133 35.4538 46.6183Z" fill="#D75756"/>
<path d="M120.409 99.8211C117.786 101.636 114.952 103.003 111.862 103.828C111.233 102.693 110.219 103.204 109.364 103.32C108.926 103.379 108.538 103.806 108.012 103.727C105.46 103.26 102.88 103.044 100.335 102.448C95.0036 101.2 90.2731 98.9057 86.1281 95.3475C85.0605 94.4321 83.755 93.802 82.8972 92.6296C82.0582 91.4759 81.191 90.3411 81.5854 88.7673C82.102 87.8018 82.8001 87.2406 83.9585 87.6952C85.7774 90.3662 88.1975 92.501 90.8523 94.1845C96.7881 97.9495 103.341 99.981 110.429 100.041C111.559 100.05 112.683 99.9151 113.782 99.6173C114.257 99.4888 114.993 99.1721 115.197 99.47C116.28 101.041 116.85 99.4104 117.607 99.1502C118.205 98.9464 118.772 98.6173 119.414 98.5796C120.297 98.5232 120.835 98.8022 120.409 99.8211Z" fill="#E87A40"/>
<path d="M120.409 99.821C120.337 98.9025 119.877 98.89 119.107 99.1313C117.798 99.542 116.605 100.047 115.794 101.834C115.76 100.222 115.563 99.5984 114.016 100.044C110.153 101.153 106.268 100.492 102.42 99.6047C100.614 99.1878 98.7478 98.774 97.0635 98.1721C94.4149 97.2222 91.9323 95.6422 89.5999 94.0152C87.662 92.664 86.0841 90.805 84.2495 89.2877C83.6109 88.7579 83.5076 88.366 83.877 87.7234C83.9271 86.8769 84.5595 86.9867 85.1136 86.9647C87.3427 87.971 88.5699 90.1686 90.5986 91.4884C95.2508 94.5136 100.035 96.7206 105.673 97.5827C111.721 98.5075 117.216 97.1908 122.801 95.4948C123.449 95.2973 123.85 94.8052 124.373 94.4634C125.327 93.8396 126.21 93.6703 126.749 94.987C124.864 96.8993 122.754 98.5138 120.409 99.821Z" fill="#E97E3D"/>
<path d="M81.6046 88.946C83.1136 93.6609 87.2493 95.6547 90.9717 98.125C94.6628 100.573 98.883 101.423 103.019 102.633C104.7 103.125 106.55 102.191 108.053 103.454C108.222 103.846 108.698 104.138 108.469 104.668C107.843 105.21 107.114 105.241 106.347 105.088C102.471 104.812 98.7765 103.878 95.3202 102.075C94.2589 100.95 92.8345 100.567 91.41 100.188C90.9185 100.097 90.4426 99.9746 90.0826 99.5922C89.6787 98.9244 89.0808 98.5169 88.3482 98.2818C88.176 98.2003 88.0226 98.0968 87.8754 97.9777C87.1335 97.2849 86.4009 96.5827 85.4397 96.1845C85.2738 96.0999 85.1298 95.987 84.9983 95.8554C84.6602 95.0497 84.056 94.5732 83.2013 94.407C80.2616 92.0025 77.6099 89.3723 76.3012 85.6763C75.243 83.2404 74.3164 80.7325 72.5381 78.6823C70.356 70.6255 69.708 62.5092 71.6052 54.2957C72.0309 54.2957 72.4536 54.2957 72.8794 54.2957C73.9282 54.7095 74.1598 55.4212 73.8624 56.5027C72.3722 61.9073 72.4818 67.4342 73.2738 72.8795C73.756 76.2025 75.2806 79.3375 76.8303 82.3533C77.3124 83.2906 77.8634 84.1935 78.308 85.1559C78.8434 86.3095 79.4538 87.4381 80.7186 87.9836C81.1976 88.1309 81.4168 88.5196 81.6046 88.946Z" fill="#E67742"/>
<path d="M94.9069 27.4985C98.3069 26.605 101.701 27.0941 105.091 27.5518C105.41 28.6114 105.395 28.6647 104.277 28.7838C101.973 29.0314 99.7125 29.3261 97.449 29.9782C95.4517 30.555 93.7705 31.6428 92.0235 32.5551C87.2398 35.0599 83.1605 38.4958 79.9985 42.9505C79.6541 43.4364 79.5289 43.9599 79.3505 44.4866C77.5472 45.1669 77.5315 47.1011 76.6142 48.4021C74.9518 46.3111 72.4786 47.3112 70.4092 46.772C70.6941 45.9976 71.3954 46.1701 71.9808 46.0729C73.2174 46.1951 74.1097 45.6653 74.9017 44.728C76.4107 42.9442 77.566 40.9128 78.9779 39.0601C80.6247 36.9001 82.4906 35.0066 84.704 33.4736C86.2662 32.3921 87.9317 31.4798 89.1871 29.9845C89.7851 29.2728 90.74 29.0565 91.6666 28.9092C92.8626 28.7211 94.0053 28.3794 94.9069 27.4985Z" fill="#E57643"/>
<path d="M80.9125 88.1779C80.493 88.6231 80.2739 88.7924 79.7197 88.1246C77.2746 85.1935 76.0349 81.6542 74.4194 78.2873C73.0294 75.3906 72.2593 72.2807 72.2467 69.2336C72.2311 64.8698 71.7834 60.3649 73.5178 56.1484C73.8966 55.2299 73.1265 54.8976 72.8729 54.302C74.0782 54.3897 75.1426 54.0136 76.1163 53.3301C76.7706 53.0856 77.3811 53.1326 76.9616 53.9947C73.9342 60.2207 74.6793 66.6598 75.6811 73.1554C76.4106 77.8672 78.7711 81.7858 81.3383 85.6355C81.4291 86.0117 80.9407 86.4788 81.354 86.7296C81.6702 86.9208 81.9457 86.5102 82.0959 86.2123C82.312 85.7797 82.5937 85.8675 82.9099 86.0556C83.0226 87.4914 82.265 88.1121 80.9125 88.1779Z" fill="#E77A40"/>
<path d="M81.3417 85.6324C79.5979 85.065 79.2535 83.3063 78.4145 82.0241C75.8097 78.0553 74.6232 73.4282 74.4573 68.8825C74.3195 65.0642 73.18 60.97 75.3057 57.2175C75.935 56.1077 75.3464 54.4682 76.7709 53.6217C76.8491 53.5747 76.367 53.3897 76.1197 53.327C76.8491 52.327 77.2624 51.2298 77.1622 49.9727C78.0482 47.6842 78.9937 45.4333 80.7876 43.6652C82.8037 42.4551 84.3472 40.6745 85.9908 39.0694C88.9712 36.1602 92.4964 34.1884 96.1812 32.4359C97.0641 32.0159 98.0816 31.3607 99.1491 32.1569C98.3383 33.7369 96.6133 33.9626 95.2483 34.4454C90.1233 36.2605 86.5387 40.0193 83.1794 43.9317C80.1426 47.471 78.355 51.7188 76.9994 56.277C75.3339 61.8885 75.4403 67.3527 76.2919 73.0049C76.7928 76.3248 78.2266 79.1243 79.8546 81.9363C80.5152 83.0712 80.8564 84.3941 81.3417 85.6324Z" fill="#E87C3E"/>
<path d="M94.906 27.4984C94.6368 29.4671 92.8992 29.1599 91.6751 29.4233C90.523 29.6709 89.515 29.9468 88.9201 31.0095C88.438 31.8654 87.6052 32.3137 86.8319 32.7275C82.8215 34.8686 80.0571 38.2387 77.54 41.8783C76.7855 42.9692 75.8964 43.9756 75.2077 45.1041C74.4406 46.3612 73.3981 46.7782 72.0143 46.5713C71.2223 45.8502 71.4164 45.1794 71.9549 44.3549C74.6003 40.3077 77.468 36.4486 80.9494 33.0754C81.372 32.6679 81.2875 32.1914 81.2937 31.7086C85.5014 29.2446 90.0691 27.931 94.906 27.4984Z" fill="#E37345"/>
<path d="M70.6406 85.5823C71.4703 84.7703 72.0526 83.833 72.1277 82.6417C72.3093 82.1997 72.5222 81.6605 73.0857 81.8141C73.8527 82.0241 73.859 82.811 74.0312 83.4442C73.8934 85.0964 74.4695 86.3973 75.6685 87.5886C77.2652 89.1717 78.5143 91.0715 79.9858 92.7832C83.201 96.5325 87.3054 99.1157 91.2375 101.947C91.848 102.385 92.3865 102.363 92.9938 102.047C94.5936 102.727 96.2185 103.332 97.8777 103.862C98.7825 104.15 100.01 104.429 99.5714 105.931C99.1425 105.931 98.7136 105.928 98.2816 105.928C97.5803 105.583 96.7726 105.987 96.0745 105.614C94.6437 105.809 93.3163 105.197 91.9263 105.085C91.3534 105.013 90.8838 104.514 90.2545 104.671C89.9195 104.718 89.572 104.806 89.3685 104.411C85.9529 102.686 83.536 99.6675 80.4585 97.4981C77.7442 95.5858 76.1131 92.6954 74.1814 90.1091C73.1921 88.7862 71.2856 88.2564 71.0101 86.3597C70.8222 86.1309 70.6719 85.8832 70.6406 85.5823Z" fill="#E37245"/>
<path d="M71.1669 86.0557C71.2922 86.1152 71.4769 86.1434 71.5395 86.2438C73.0704 88.689 75.4529 90.4477 76.9149 92.9431C78.2454 95.2159 80.3712 96.6799 82.3216 98.332C83.8807 99.6549 85.5431 100.859 86.8956 102.426C87.5843 103.222 89.3156 102.771 89.3688 104.411C83.768 103.122 78.834 100.539 74.5356 96.7269C74.0628 95.0341 72.6227 93.7832 72.3816 91.9838C71.9089 90.5762 71.1669 89.3285 70.2841 88.1341C69.4701 87.0369 69.5734 86.1967 71.1669 86.0557Z" fill="#E26F47"/>
<path d="M44.868 62.6629C42.9614 62.6879 41.0579 62.7506 39.1513 62.7256C36.6687 62.6942 35.0438 61.0421 35.0313 58.6251C35.0188 56.0576 36.6092 54.3114 39.1482 54.2393C40.9108 54.1892 42.6765 54.2738 44.4422 54.2958C44.9494 56.9322 45.0715 59.5123 43.2118 61.8258C43.8098 62.061 44.7741 61.5656 44.868 62.6629Z" fill="#D75756"/>
<path d="M126.746 94.9839C126.098 94.5795 125.509 94.0591 124.683 94.73C121.749 97.1156 118.061 97.7489 114.577 98.2223C109.045 98.9747 103.469 98.4574 98.1971 96.2629C93.7108 94.3945 89.5563 92.0245 86.3067 88.294C85.9435 87.8802 85.4395 87.5917 84.998 87.2438C85.1389 86.3942 85.6774 86.134 86.4663 86.2375C88.4763 87.4475 89.9852 89.2439 91.6758 90.8144C94.9161 93.824 98.889 94.9776 103.037 96.009C105.676 96.6642 108.303 96.5702 110.933 96.8554C112.905 97.0686 114.715 96.3288 116.521 95.9369C119.705 95.2504 123.049 94.6014 125.544 92.1343C126.931 91.3286 128.117 90.2564 129.388 89.2971C130.205 88.6827 130.963 87.6294 132.275 88.1937C130.728 90.7016 129.069 93.1123 126.746 94.9839Z" fill="#EA803C"/>
<path d="M68.6209 54.2957C69.4693 54.2957 70.3178 54.2957 71.1631 54.2957C71.7579 55.1578 71.0817 55.9133 70.9408 56.7002C69.9045 62.4779 69.6259 68.2461 70.9126 74.0332C71.2632 75.6132 71.8174 77.1054 72.4153 78.5945C72.622 78.9111 72.9726 79.1431 73.0039 79.5663C72.4686 80.7231 71.808 79.8735 71.185 79.6792C69.0937 78.1117 66.6298 79.1212 64.3757 78.7011C64.3037 78.4816 64.3726 78.3123 64.5573 78.1807C64.9361 77.9832 65.3493 77.933 65.7689 77.9079C66.1758 77.8829 66.586 77.8797 66.993 77.8672C68.0042 77.8985 68.2233 77.3186 67.9729 76.491C67.2747 74.1774 67.0243 71.751 66.7895 69.3966C66.2885 64.2804 66.4545 59.1392 68.6209 54.2957Z" fill="#E37345"/>
<path d="M66.9271 78.3907C66.5013 78.3907 66.0787 78.3907 65.6529 78.3939C65.0017 77.7919 64.7732 76.9706 64.554 76.1649C63.8371 73.5629 63.405 70.9077 63.1076 68.2304C63.7244 66.9483 63.4489 65.688 62.998 64.4372C64.1126 61.876 63.5271 59.0169 64.3975 56.4118C64.6385 55.6908 64.6385 54.8788 65.2302 54.2957C65.9378 54.2957 66.6422 54.2957 67.3497 54.2957C67.8694 56.2331 67.2683 58.136 67.0335 60.0201C66.6766 62.8603 66.0411 65.7037 66.5608 68.5439C67.0022 70.9672 67.0429 73.425 67.453 75.842C67.6002 76.7323 67.7755 77.6822 66.9271 78.3907Z" fill="#E26F47"/>
<path d="M81.2951 31.7118C82.1498 32.2416 82.61 32.6711 81.508 33.5708C79.1224 35.5176 77.0467 37.8123 75.2309 40.2889C74.1602 41.7498 73.653 43.6025 72.144 44.8001C71.5273 45.2891 71.9812 45.9757 72.0157 46.5776C71.4803 46.6434 70.9481 46.7124 70.4128 46.7782C66.8626 47.0917 63.3092 46.9757 59.7559 46.8879C60.1315 45.8189 61.0801 46.145 61.844 46.0196C62.4201 46.0164 62.9961 45.9882 63.5722 45.9976C64.5615 46.0478 65.5539 45.9914 66.5432 46.0164C69.461 46.123 69.7177 46.1951 70.4973 43.4333C71.2706 40.6996 73.5716 38.9346 74.3981 36.3139C76.4707 34.4423 78.681 32.7745 81.2951 31.7118Z" fill="#E27047"/>
<path d="M49.1319 94.476C48.0894 94.498 47.0438 94.5669 46.0012 94.5293C44.4359 94.476 43.1398 93.8428 42.4855 92.3599C41.7372 90.6734 41.8844 88.9774 42.9018 87.4287C43.3339 86.7735 44.0007 86.3628 44.8491 86.4005C45.4847 86.3785 46.1108 86.5039 46.7463 86.5102C47.864 86.5227 48.3587 87.0901 47.9297 88.1497C47.3913 89.4821 47.8233 90.4665 48.7782 91.3724C49.3542 91.9179 49.6767 92.6295 49.9616 93.36C50.2903 94.2064 49.6422 94.2817 49.1319 94.476Z" fill="#D75756"/>
<path d="M79.2191 44.4647C79.0438 44.0226 78.6493 43.5649 79.1315 43.1104C81.4451 40.9222 83.048 38.1353 85.7122 36.1697C88.5142 34.1006 91.5071 32.4548 94.4531 30.6585C97.4523 28.8308 100.702 28.6929 103.974 28.3073C104.384 28.2602 105.495 28.9186 105.094 27.5518C106.462 28.1505 108.241 27.2727 109.371 28.7368C109.308 29.022 109.13 29.2101 108.873 29.3355C108.341 29.439 107.802 29.4985 107.27 29.6239C105.317 30.2039 103.347 30.6647 101.287 30.4798C99.4215 30.4265 97.612 30.9343 96.0091 31.7055C90.0952 34.552 84.6666 38.082 80.7469 43.5524C80.4401 43.985 80.2648 45.0948 79.2191 44.4647Z" fill="#E77940"/>
<path d="M101.266 30.0346C103.445 30.2007 105.461 29.1443 107.624 29.185C108.047 29.5957 108.473 29.3982 108.895 29.185C109.052 29.0377 109.208 28.8872 109.368 28.7399C109.634 28.7681 109.9 28.7963 110.166 28.8245C110.827 28.348 109.249 30.2917 110.673 29.2791C111.246 28.8747 112.233 29.3794 112.286 30.4609C109.183 30.7431 106.084 31.1538 102.972 31.2478C101.576 31.2886 100.505 32.2635 99.1431 32.1569C94.2529 33.2604 90.327 35.9878 86.6015 39.2324C84.7356 40.8563 83.2955 43.0257 80.913 44.0414C80.697 42.9849 81.3983 42.336 82.0181 41.6902C85.9221 37.6023 90.302 34.1664 95.4989 31.8403C97.3586 31.0033 99.381 30.7462 101.266 30.0346Z" fill="#E87B3F"/>
<path d="M44.0326 78.4127C45.0219 76.5913 44.449 74.657 44.2737 72.8074C44.2017 72.055 44.5993 70.9641 43.6162 70.3873C45.169 70.3873 46.7187 70.3904 48.2716 70.3904C49.815 72.983 50.51 75.679 49.2703 78.6102C47.5233 78.5099 45.7639 78.8735 44.0326 78.4127Z" fill="#D85954"/>
<path d="M72.4377 78.8422C71.1573 78.3061 71.032 76.8923 70.8379 75.9455C69.9801 71.7917 69.163 67.6662 69.642 63.2804C69.9738 60.227 70.3151 57.2363 71.1667 54.2989C71.3107 54.2989 71.4578 54.2989 71.6018 54.2989C72.8009 55.8632 71.4015 57.3115 71.3576 58.8288C71.2324 63.1017 70.7284 67.3025 71.7771 71.6225C72.3344 73.9172 72.8103 76.3907 72.8635 78.8453C72.7195 79.0177 72.5786 79.0177 72.4377 78.8422Z" fill="#E47543"/>
<path d="M53.375 86.1278C54.5052 86.1278 55.6385 86.1278 56.7687 86.1278C58.6033 86.1246 59.7021 87.0337 60.3345 88.7548C60.7916 89.9994 61.6463 91.0621 62.3758 92.1781C62.8516 92.9054 63.5185 93.7676 62.2756 94.476C60.8605 94.476 59.4423 94.476 58.0272 94.476C57.016 93.1907 56.6904 91.5574 55.8483 90.1812C55.0186 88.8269 54.3893 87.3598 53.375 86.1278Z" fill="#DB5F50"/>
<path d="M58.8692 46.9412C55.5476 46.4835 53.9321 42.8752 56.0422 39.9597C57.3947 38.0882 59.4703 38.4456 61.4114 38.5177C61.8027 38.9252 61.8246 39.4174 61.6399 39.897C60.732 42.2545 60.0213 44.684 58.8692 46.9412Z" fill="#DB6050"/>
<path d="M101.264 30.0346C98.475 31.7964 95.0469 31.9908 92.2637 33.8561C87.984 36.7214 83.8139 39.6557 80.9149 44.0383C79.2963 45.7844 78.8361 48.261 77.1612 49.9695C76.9796 49.446 76.798 48.9256 76.6133 48.4021C76.8324 46.6559 76.7103 44.6903 79.218 44.4615C80.655 44.1261 80.5016 42.568 81.3093 41.7372C86.6096 36.2982 92.4484 31.7274 100.05 29.9499C100.501 29.8496 100.87 29.8653 101.264 30.0346Z" fill="#E77A40"/>
<path d="M35.4551 46.6183C38.6233 46.6089 41.8041 46.4396 44.9568 46.6653C46.1527 46.75 46.5409 45.8659 47.3799 45.612C47.8214 45.4803 47.6679 44.8063 47.5615 44.7374C46.1777 43.8251 47.9153 42.1416 46.6567 41.1635C46.4689 41.0162 46.9166 40.4801 47.43 40.4237C48.3849 40.3171 48.6322 39.5898 48.748 38.781C50.8393 39.477 51.4373 41.1353 51.2557 43.079C51.0742 45.0164 50.2476 46.5932 47.9748 46.7406C43.8015 47.007 39.6252 47.3111 35.4551 46.6183Z" fill="#D85954"/>
<path d="M62.2723 94.4729C62.3631 94.2848 62.5823 94.0058 62.5228 93.9211C60.6694 91.2753 60.3751 87.4695 56.7686 86.1277C57.8987 86.1277 59.0289 86.1277 60.1622 86.1277C62.2817 86.0556 63.5027 87.25 64.157 89.1028C64.9021 91.2157 66.2483 92.896 67.7636 94.476C65.9321 94.4729 64.1038 94.4729 62.2723 94.4729Z" fill="#DC634E"/>
<path d="M66.9284 78.3907C67.0286 74.4783 66.4619 70.6036 65.8452 66.7758C65.5603 65.0046 66.033 63.3995 66.296 61.8791C66.7374 59.3586 66.4118 56.7284 67.3479 54.2957C67.7705 54.2957 68.1963 54.2957 68.619 54.2957C67.6171 58.6627 66.9002 63.0986 67.0411 67.5596C67.135 70.5064 67.9271 73.4532 68.6096 76.3499C69.0072 78.0271 68.7129 78.7168 66.9284 78.3907Z" fill="#E27046"/>
<path d="M54.6337 62.6659C53.5035 62.6628 52.3733 62.6597 51.2431 62.6565C50.6514 59.6345 50.9895 56.8005 52.9368 54.2957C53.9261 54.2957 54.9155 54.2957 55.9048 54.2957C56.3399 57.2175 56.2429 60.0577 54.6337 62.6659Z" fill="#DB6050"/>
<path d="M51.6597 70.381C52.7899 70.381 53.9201 70.381 55.0502 70.381C55.9237 72.5567 55.9832 74.8734 56.1898 77.1619C56.243 77.7544 56.0583 78.2685 55.4666 78.5444C54.6683 78.6823 53.8668 78.6165 53.0685 78.5914C52.2639 78.3312 51.7849 77.7387 51.5752 76.9612C51.0649 75.0552 51.0711 73.0896 51.0054 71.1366C50.9897 70.7666 51.3498 70.5566 51.6597 70.381Z" fill="#DB5F50"/>
<path d="M55.4912 94.4729C54.7774 94.4729 54.0636 94.4729 53.3498 94.4729C52.2728 94.0402 51.246 93.4948 51.0174 92.2439C50.5165 89.4789 49.8152 86.8989 46.5938 86.1246C48.5661 86.1246 50.5416 86.1277 52.5139 86.1277C54.671 87.8739 54.7805 90.6827 56.0078 92.9117C56.3302 93.4979 56.2645 94.1531 55.4912 94.4729Z" fill="#D95B53"/>
<path d="M46.5907 86.1246C46.766 86.2312 46.9664 86.4538 47.1166 86.4224C50.072 85.8362 50.6888 87.9742 51.0269 90.0339C51.3243 91.8396 51.9191 93.3318 53.3467 94.4729C51.941 94.4729 50.5354 94.476 49.1297 94.476C50.2286 93.2409 49.0577 92.4948 48.419 91.802C47.3546 90.6483 46.503 89.5981 47.4986 87.9617C48.0558 87.0463 47.389 86.808 46.6658 86.9616C45.9051 87.1215 45.3979 86.7516 44.8438 86.4036C45.3541 85.8456 45.9896 86.0839 46.5907 86.1246Z" fill="#D85954"/>
<path d="M58.8684 46.9412C58.7118 44.4584 60.2741 42.521 60.9691 40.3077C61.1538 39.7152 61.47 39.1697 61.4105 38.5208C62.6847 38.5302 63.9589 38.5428 65.2331 38.5522C65.6056 38.781 66.1066 39.1791 65.7684 39.524C63.9902 41.3516 63.3734 43.7467 62.4342 45.9882C62.3215 46.2578 62.0711 46.4114 61.8394 46.5744C61.1444 46.6716 60.3868 46.3613 59.7512 46.8816C59.4569 46.9036 59.1627 46.9224 58.8684 46.9412Z" fill="#DD644F"/>
<path d="M99.5729 105.931C99.2754 104.288 97.7602 104.285 96.6613 104.016C95.2055 103.661 93.9063 103.169 92.7918 102.182C91.2108 101.856 89.9616 101.056 89.1602 99.6173C89.1852 99.4104 89.2729 99.2348 89.4169 99.0843C89.7205 98.9495 89.9992 98.9652 90.2465 99.2097C90.5502 99.7113 91.0511 99.6204 91.5176 99.633C92.6853 100.526 94.1599 100.871 95.3339 101.755C98.8716 103.304 102.707 103.871 106.345 105.088C104.103 105.505 101.899 106.223 99.5729 105.931Z" fill="#E47543"/>
<path d="M55.4783 78.4127C55.9792 76.0928 55.112 73.8733 54.9649 71.6005C54.9367 71.171 54.8678 70.7792 55.0525 70.3842C56.045 70.3873 57.0343 70.3904 58.0267 70.3936C58.847 72.5598 58.9784 74.8953 59.6359 77.1054C59.783 77.6007 59.7361 78.2528 59.1256 78.5976C57.9046 78.5506 56.6742 78.8328 55.4783 78.4127Z" fill="#DC634E"/>
<path d="M44.8693 62.6628C44.2901 61.9575 43.3853 62.5468 42.6621 62.0891C44.1054 60.0169 44.4529 57.7159 44.0991 55.255C44.0553 54.9572 44.3214 54.6186 44.4466 54.2957C45.439 54.2957 46.4346 54.2957 47.427 54.2957C48.4382 55.7002 47.5241 57.1171 47.4145 58.5122C47.3081 59.8947 46.2217 61.18 47.0013 62.6597C46.2906 62.6628 45.5799 62.6628 44.8693 62.6628Z" fill="#D85954"/>
<path d="M55.4786 78.4127C56.7497 78.4127 58.0207 78.4127 59.2949 78.4127C60.5378 77.8766 60.8008 76.9644 60.5159 75.6822C60.303 74.7229 60.0494 73.7636 59.9179 72.7855C59.7927 71.8733 59.6612 70.9453 60.5472 70.2776C60.9792 70.0519 61.4113 69.8293 61.8433 69.6036C62.8796 71.0895 62.914 72.8702 63.1394 74.5505C63.3241 75.9549 63.6309 77.2496 64.3886 78.4378C64.3886 78.5256 64.3886 78.6133 64.3854 78.7011C55.9075 78.7231 47.4296 78.745 38.9516 78.7701C38.8139 78.6886 38.77 78.6133 38.817 78.535C38.864 78.4597 38.9109 78.4221 38.9579 78.4221C40.6516 78.419 42.3453 78.419 44.039 78.4158C45.8767 78.4158 47.7113 78.4158 49.549 78.4158C50.6792 77.5098 51.8094 77.7794 52.9396 78.4158C53.7818 78.4127 54.6302 78.4127 55.4786 78.4127Z" fill="#E06B4B"/>
<path d="M47.0006 62.6597C45.332 60.5844 47.2918 58.6 47.201 56.5497C47.1697 55.8475 47.417 55.0575 47.4264 54.2957C48.5566 54.2957 49.6868 54.2957 50.817 54.2957C51.4963 55.487 50.5446 56.4024 50.2221 57.3867C49.6461 59.1454 50.5102 60.9292 49.9623 62.6565C48.973 62.6597 47.9868 62.6597 47.0006 62.6597Z" fill="#D95B53"/>
<path d="M54.6338 62.6659C55.0564 59.8759 55.4822 57.0858 55.9049 54.2957C56.8942 54.2957 57.8835 54.2957 58.8728 54.2957C59.0418 57.1265 58.8822 59.926 58.0243 62.6565C56.8942 62.6597 55.764 62.6628 54.6338 62.6659Z" fill="#DC634E"/>
<path d="M66.9272 46.5587C65.8002 46.5619 64.67 46.5681 63.543 46.5713C65.3087 44.0822 65.963 41.0037 67.7725 38.5396C68.621 38.5396 69.4694 38.5396 70.3178 38.5396C70.8093 38.9785 71.2413 39.5365 70.9533 40.1792C69.9171 42.4896 69.2377 45.0446 66.9272 46.5587Z" fill="#E06B4A"/>
<path d="M52.9341 78.4127C51.8039 78.4127 50.6737 78.4127 49.5435 78.4127C49.4058 78.0177 49.0739 77.5694 49.1678 77.2402C49.8503 74.8138 48.4384 72.6883 48.2725 70.3904C49.4026 70.3873 50.5297 70.3842 51.6599 70.381C51.7288 73.1147 51.2341 75.9393 52.9341 78.4127Z" fill="#DA5D52"/>
<path d="M66.9287 46.5588C68.1027 44.8816 69.0764 43.0884 70.0281 41.2796C70.5134 40.3548 70.6824 39.5021 70.3193 38.5396C72.2415 38.8281 72.9334 36.8625 74.3954 36.3138C75.0936 37.3045 74.4643 38.1133 73.8319 38.6588C72.157 40.1071 71.5277 42.0978 70.9423 44.054C70.2973 46.2045 69.0044 46.9067 66.9287 46.5588Z" fill="#E16E48"/>
<path d="M67.7737 38.5396C66.8282 40.941 65.9266 43.3611 64.8966 45.728C64.7213 46.1293 64.0075 46.2954 63.541 46.5713C62.9743 46.5713 62.4045 46.5744 61.8379 46.5744C62.4922 44.7405 62.68 42.7216 63.9918 41.1479C64.164 40.9378 64.4927 40.5648 64.4489 40.5146C63.8603 39.7998 63.278 39.3516 64.9091 39.6807C65.9516 39.8908 65.3599 39.0161 65.2316 38.549C66.0831 38.5459 66.9284 38.5427 67.7737 38.5396Z" fill="#DF694C"/>
<path d="M71.1914 79.6792C71.7518 79.1212 72.3028 80.2529 72.8632 79.6886C73.7241 79.4754 73.8744 80.1118 74.128 80.6949C74.8637 82.3972 76.0127 83.8894 76.6795 85.6293C78.1635 89.0808 80.7307 91.664 83.4638 94.1186C83.9803 94.6171 85.1074 94.5669 84.8976 95.7175C84.788 95.8961 84.6409 96.0247 84.4468 96.0999C82.9503 96.2911 82.0455 95.1688 81.2973 94.2911C78.4452 90.9398 75.4523 87.6576 73.7148 83.5101C73.2671 83.0775 73.5582 81.2968 72.1338 82.6417C72.0962 81.5633 71.9115 80.535 71.1914 79.6792Z" fill="#E47543"/>
<path d="M72.8604 91.9963C73.2861 93.0402 73.355 94.2409 74.4476 94.9776C75.1051 95.4196 74.3506 96.1438 74.5322 96.73C73.6712 96.0121 72.8103 95.2942 71.9493 94.5763C70.0991 94.1813 68.8468 93.3945 68.2927 91.2815C67.8168 89.4633 66.4049 87.9272 65.666 86.1246C66.0918 86.1246 66.5144 86.1246 66.9402 86.1246C68.4649 86.2186 69.138 87.3033 69.8768 88.4538C70.7127 89.7485 70.9819 91.5731 72.8604 91.9963Z" fill="#E06C4A"/>
<path d="M65.2317 54.2957C64.8059 57.556 64.377 60.8164 63.9512 64.0798C63.8573 64.8102 63.3689 64.456 62.9995 64.4372C62.5612 64.0265 62.1229 63.6158 61.6846 63.2083C61.7472 60.1706 61.647 57.1077 63.1122 54.2957C63.8197 54.2957 64.5241 54.2957 65.2317 54.2957Z" fill="#E16C49"/>
<path d="M64.3832 78.4378C63.3376 78.3719 62.8241 77.5475 62.8179 76.7669C62.8053 74.3248 61.8286 72.0331 61.838 69.6036C62.2606 69.1459 62.6833 68.6882 63.1059 68.2305C64.6118 71.4532 64.4709 75.0897 65.6543 78.3939C65.2316 78.4096 64.8059 78.4221 64.3832 78.4378Z" fill="#E16C49"/>
<path d="M132.275 88.1968C129.727 88.9836 128.321 91.5073 125.854 92.4227C125.35 92.7236 125 92.7142 125.006 91.9994C124.796 90.6201 126.042 90.5041 126.784 89.99C129.113 88.3817 131.17 86.46 133.224 84.5321C133.712 84.0744 134.417 83.8424 135.021 83.5101C134.423 85.2562 133.487 86.808 132.275 88.1968Z" fill="#EB823C"/>
<path d="M63.111 54.2957C62.9106 57.2143 61.9151 60.0546 62.2469 63.0296C62.2501 63.0672 61.8806 63.1456 61.6834 63.2052C61.3108 63.0359 60.9383 62.8697 60.5657 62.7004C59.3949 61.7694 59.1632 60.5499 59.4575 59.158C59.8112 57.4871 59.733 55.6814 60.9915 54.2957C61.6959 54.2957 62.4035 54.2957 63.111 54.2957Z" fill="#E0694A"/>
<path d="M65.6669 86.1246C67.5015 87.3723 68.0963 89.5072 68.9041 91.3191C69.6179 92.9242 70.316 93.9681 72.041 94.2221C72.0661 94.2252 72.0974 94.3537 72.0817 94.4133C72.0661 94.476 71.9972 94.523 71.9534 94.5763C70.8388 94.5418 69.7274 94.5074 68.6129 94.4697C67.3231 93.8051 66.8284 92.4853 66.2492 91.3254C65.3006 89.4131 64.3082 87.5698 62.7021 86.1246C63.6883 86.1277 64.6776 86.1246 65.6669 86.1246Z" fill="#E0694A"/>
<path d="M60.5452 70.2776C59.7969 72.3278 60.7549 74.2778 61.1463 76.1807C61.547 78.1431 61.0743 78.6228 59.296 78.4127C59.0143 75.7167 57.5366 73.2087 58.025 70.3904C58.864 70.3528 59.703 70.3152 60.5452 70.2776Z" fill="#DD664C"/>
<path d="M60.9925 54.2957C60.767 55.302 60.526 56.3052 60.3162 57.3178C59.9405 59.1329 59.5962 60.9511 60.5667 62.7036C59.7183 62.6879 58.8698 62.6722 58.0245 62.6565C57.9431 59.832 57.9932 57.0231 58.873 54.2957C59.5774 54.2957 60.2849 54.2957 60.9925 54.2957Z" fill="#DE674C"/>
<path d="M55.4912 94.4729C55.7322 94.0403 55.989 93.5857 55.607 93.1249C54.1418 91.3662 54.5614 88.6952 52.6861 87.1215C52.4888 86.9554 52.564 86.4663 52.5107 86.1277C52.7988 86.1277 53.0868 86.1277 53.3717 86.1277C54.8963 86.3441 55.0216 87.6921 55.5945 88.7485C56.5901 90.5856 57.8549 92.291 58.0208 94.476C57.1786 94.4729 56.3333 94.4729 55.4912 94.4729Z" fill="#DA5D52"/>
<path d="M49.9594 62.6565C48.8324 59.7254 49.7966 57.0074 50.8141 54.2957C51.5217 54.2957 52.2292 54.2957 52.9336 54.2957C51.7784 56.9635 51.5937 59.8289 51.2399 62.6565C50.8141 62.6565 50.3852 62.6565 49.9594 62.6565Z" fill="#DA5D51"/>
<path d="M62.7011 86.1277C65.813 86.8958 65.644 90.2031 67.297 92.1123C67.873 92.78 68.183 93.6797 68.6119 94.4729C68.3301 94.4729 68.0452 94.4729 67.7635 94.476C65.5 93.7111 64.6891 91.7047 63.9503 89.7611C63.2365 87.8864 62.1438 86.5886 60.1621 86.1277C61.0074 86.1246 61.8527 86.1246 62.7011 86.1277Z" fill="#DE674C"/>
<path d="M72.8606 91.9963C71.8368 92.6609 71.2984 92.3067 70.7818 91.2471C70.1181 89.8865 69.0317 88.7109 68.4933 87.3159C68.1489 86.4224 67.3067 86.6889 66.9404 86.1246C68.1739 85.9428 69.4074 85.761 70.6409 85.5823C70.8162 85.739 70.9916 85.8989 71.1637 86.0557C70.2308 86.5541 69.7361 87.0463 70.7693 88.0369C71.8807 89.0997 72.4661 90.5166 72.8606 91.9963Z" fill="#E16E48"/>
<path d="M108.466 104.668C108.447 104.223 107.543 104.081 108.05 103.454C108.992 102.113 110.561 103.006 111.769 102.479C112.079 102.345 111.688 103.36 111.866 103.824C110.805 104.404 109.643 104.574 108.466 104.668Z" fill="#E67843"/>
<path d="M112.289 30.4578C111.603 29.5142 110.742 29.3669 109.603 30.1788C109.875 29.5299 110.022 29.1756 110.169 28.8245C112.029 28.5361 113.328 29.7932 114.828 30.508C113.957 31.787 113.134 30.5864 112.289 30.4578Z" fill="#E87B3F"/>
<path d="M38.951 78.419C38.9479 78.535 38.9448 78.651 38.9448 78.767C36.9693 78.767 34.997 78.767 33.0215 78.7701C34.9625 78.0365 36.9787 78.582 38.951 78.419Z" fill="#D85954"/>
<path d="M90.2559 104.674C91.0041 104.034 91.4205 104.749 91.9277 105.088C91.2921 105.266 90.7662 105.003 90.2559 104.674Z" fill="#E26F47"/>
<path d="M96.0742 105.614C96.8193 105.655 97.6176 105.323 98.2814 105.928C97.5206 106.006 96.763 106.044 96.0742 105.614Z" fill="#E47446"/>
<path d="M86.4326 86.5008C85.747 86.3503 85.3964 86.8456 84.9988 87.2469C84.5292 87.1779 84.1441 87.3065 83.878 87.7203C83.0515 87.9993 82.2281 88.2845 81.6051 88.946C81.0009 89.0244 80.7786 88.7642 80.9163 88.1748C81.699 87.5761 82.3846 86.8832 82.9169 86.0494C83.3865 85.4945 83.8529 84.9427 84.3225 84.3878C84.4634 84.2468 84.6074 84.1026 84.7483 83.9615C85.6061 82.9677 86.4639 81.9739 87.3218 80.977C87.5378 79.8955 88.5584 79.4315 89.1125 78.6102C89.6385 77.8703 90.1801 77.1399 90.8438 76.5129C91.4261 75.9455 92.0303 75.3938 92.4561 74.6853C93.0979 73.7354 93.9682 72.9924 94.7353 72.1554C97.5372 69.2336 97.5372 69.2336 94.1749 67.0517C93.8211 66.8229 93.4611 66.6097 93.1073 66.384C92.1023 65.6818 90.8657 65.3307 90.0173 64.3839C89.5195 63.7224 88.8088 63.3494 88.0982 62.9763C87.6536 62.6785 87.2216 62.3619 86.7614 62.086C86.3168 61.7568 85.8253 61.4841 85.4558 61.0546C85.3713 60.8759 85.3306 60.691 85.3338 60.4935C85.3932 60.0797 85.6187 59.7693 85.9317 59.5122C86.6768 59.0671 87.4251 58.6188 88.1702 58.1705C89.4538 57.7191 90.6497 57.0795 91.855 56.4557C93.0102 55.904 94.1749 55.371 95.2456 54.6625C99.5565 52.5245 103.93 50.5182 108.185 48.2642C109.907 47.4365 111.613 46.5776 113.347 45.7813C114.418 45.2045 115.467 44.5806 116.613 44.1543C117.035 44.0602 117.439 44.0728 117.812 44.3236C118.444 45.7029 117.232 46.3299 116.641 47.2108C116.037 47.9507 115.37 48.6341 114.697 49.3112C114.149 49.8065 113.695 50.3802 113.316 51.0135C112.201 52.4179 110.711 53.4744 109.694 54.9666C108.313 56.7159 106.588 58.1611 105.317 60.0076C100.906 64.3369 101.93 63.5124 105.946 66.5094C106.397 66.8448 106.892 67.1207 107.352 67.4467C108.376 68.1615 109.415 68.8512 110.467 69.5252C111.431 70.218 112.48 70.7886 113.407 71.5409C114.208 72.5504 113.695 73.2401 112.818 73.7855C111.801 74.4219 110.702 74.9047 109.634 75.4439C107.618 76.375 105.665 77.4346 103.67 78.4127C102.34 79.0303 101.037 79.7074 99.7319 80.3751C99.04 80.698 98.3575 81.0397 97.675 81.3846C96.908 81.7357 96.1629 82.137 95.4021 82.4975C94.7102 82.7389 94.0715 83.0994 93.4172 83.4223C92.8255 83.6386 92.2996 83.9928 91.7298 84.253C91.2226 84.4223 90.7436 84.7201 90.1738 84.5885C89.4381 84.8299 88.7149 85.0963 88.1389 85.6481C87.6818 86.1685 87.2435 86.7077 86.4326 86.5008Z" fill="white"/>
<path d="M121.614 40.6431C124.736 42.6683 127.891 44.5681 130.662 47.17C132.572 48.9632 132.816 51.8661 135.255 53.1044C134.503 54.6437 136.012 55.349 136.507 56.4243C136.664 56.766 136.557 57.1234 136.413 57.1642C135.23 57.5059 135.85 58.2865 136.081 58.7849C138.598 64.2679 136.911 69.5283 135.424 74.8577C134.61 77.7794 132.825 80.1557 131.401 82.7075C130.878 83.6448 129.526 84.5069 128.395 85.2029C127.043 86.6167 125.694 87.877 123.696 88.5573C122.106 89.0996 120.785 90.4413 119.041 90.8834C118.211 91.0934 117.416 91.3724 116.599 90.8834C116.126 89.9053 116.903 89.6796 117.526 89.4883C118.249 89.2658 118.956 89.0651 119.523 88.5353C119.686 88.4162 119.861 88.319 120.043 88.2312C122.253 87.203 124.322 85.9145 126.436 84.7044C127.187 84.275 127.403 83.5508 127.644 82.8172C128.524 81.4504 129.482 80.14 130.399 78.8014C134.394 72.961 135.033 66.5438 133.718 59.7787C132.522 53.6123 128.975 48.9319 124.059 45.3549C119.996 42.3956 115.325 40.9284 110.184 41.0946C107.435 41.1855 104.777 41.198 102.091 42.1918C96.049 44.4207 91.3937 48.051 88.5792 53.9321C87.8842 55.3867 87.2518 56.8946 86.156 58.1266C84.5844 58.5874 84.3841 57.8131 84.4655 56.4557C84.647 53.3866 87.0451 51.5464 88.3225 49.0917C89.3212 47.1732 91.2528 46.17 92.4957 44.5085C94.3209 43.0006 96.3402 41.8877 98.4534 40.7779C102.454 38.6807 106.656 38.6587 110.898 38.2543C113.352 38.0192 115.647 38.6242 117.87 39.3547C119.116 39.7654 120.35 40.2701 121.614 40.6431Z" fill="#EE8837"/>
<path d="M116.527 90.7235C118.71 90.6169 120.582 89.8269 122.488 88.7015C124.454 87.5416 126.518 86.5258 128.399 85.206C127.397 87.0838 126.123 88.4036 123.928 89.1968C122.182 89.8269 120.594 91.2094 118.731 91.7329C115.209 92.7267 111.722 93.5418 107.909 93.0151C104.452 92.5386 101.215 91.6295 98 90.3975C94.838 89.1842 92.4649 86.9522 90.167 84.5916C90.5771 84.2938 90.9152 83.8298 91.5257 83.974C92.9596 84.043 93.9739 84.9145 95.029 85.7452C98.2536 88.2814 101.951 89.7109 105.98 90.3034C109.236 90.7831 112.495 91.5762 115.776 90.41C116.045 90.3191 116.315 90.5291 116.527 90.7235Z" fill="#ED8738"/>
<path d="M92.7871 44.8878C92.7496 45.2515 92.64 45.5744 92.2925 45.7531C88.9082 47.4898 88.0911 51.3615 85.599 53.86C84.7381 54.7221 85.2171 56.1422 84.832 57.2802C84.5503 58.1172 85.693 57.6282 86.0029 58.0451C86.1594 58.4244 85.9872 58.7724 85.718 58.9511C84.569 59.716 86.0686 59.4307 86.0154 59.7474C85.8464 60.0327 85.6773 60.3211 85.5083 60.6063C85.142 61.2208 85.5677 61.9512 85.2234 62.5719C83.7018 67.2085 85.2797 71.5159 86.651 75.8389C86.8169 76.3593 87.1894 76.8358 87.8093 76.9738C88.6483 77.3186 88.3916 78.56 89.3277 78.8265C88.7485 79.629 88.1756 80.4379 87.3147 80.9802C84.3468 78.1525 83.5891 74.3154 82.6217 70.5911C81.5385 66.4091 82.077 62.1362 83.1602 58.1517C84.5283 53.1107 86.8012 48.33 91.5098 45.3142C91.9168 45.1073 92.2299 44.6277 92.7871 44.8878Z" fill="#ED8738"/>
<path d="M86.4316 86.5008C86.9701 86.1622 87.3552 85.5133 88.1316 85.6543C88.4103 86.3534 88.692 87.0557 88.9706 87.7547C91.8196 89.6859 94.584 91.711 97.7554 93.1656C103.694 95.8867 109.805 96.2472 116.098 95.0121C119.069 94.429 122 93.6954 124.579 91.9994C124.72 91.9994 124.861 91.9994 125.002 91.9994C125.183 92.3411 125.5 92.4164 125.85 92.4226C122.948 95.4165 118.966 95.6422 115.281 96.7708C112.783 97.5357 110.319 96.8742 107.908 97.4699C107.025 97.6893 106.252 97.2347 105.435 97.0843C101.133 96.2849 96.7817 95.4322 93.2065 92.7737C90.752 90.9461 88.6764 88.6074 86.4316 86.5008Z" fill="#EB813C"/>
<path d="M124.583 91.9963C123.704 93.824 121.797 94.1155 120.213 94.5795C109.518 97.7019 99.5159 96.3946 90.5214 89.4696C89.9203 89.0056 89.4851 88.3285 88.9717 87.7516C90.6654 87.783 91.7173 89.0715 92.9696 89.9022C94.9012 91.1813 97.1804 91.755 99.0431 93.1782C100.665 94.4134 102.766 94.5827 104.672 94.6892C108.241 94.8899 111.735 95.3977 115.454 94.4917C118.525 93.7425 121.34 92.0089 124.583 91.9963Z" fill="#EB823C"/>
<path d="M92.7867 44.8879C92.364 45.0289 91.9383 45.17 91.5156 45.3111C92.7554 42.4771 95.4885 41.7906 97.9555 40.5711C100.015 39.5554 102.113 38.966 104.292 38.3453C108.137 37.2543 111.812 37.4205 115.653 38.2168C117.848 38.6713 119.836 39.314 121.614 40.6369C120.199 40.8438 119.009 40.4676 117.666 39.8438C115.625 38.897 113.362 38.4362 110.96 38.8281C108.769 39.1854 106.505 39.0883 104.276 39.2168C103.65 39.2544 102.961 39.2293 102.42 39.4833C99.0857 41.0664 95.429 42.079 92.7867 44.8879Z" fill="#ED8639"/>
<path d="M76.6765 85.6324C75.6903 84.0148 74.6697 82.416 73.7399 80.7639C73.4988 80.3313 73.336 79.9018 72.8601 79.6886C72.7193 79.4065 72.5784 79.1243 72.4375 78.8391C72.5784 78.8391 72.7193 78.8391 72.8633 78.8391C75.3115 80.441 75.6527 83.2279 76.6765 85.6324Z" fill="#E67742"/>
<path d="M85.1572 95.8178C85.2981 95.8178 85.439 95.8178 85.5799 95.8178C86.4283 96.5231 87.3393 97.1564 88.1251 97.9401C88.5509 98.3633 89.6372 98.1251 89.3962 99.2129C87.2329 99.6455 84.7346 97.8273 84.7314 95.8178C84.8723 95.6109 85.0132 95.6109 85.1572 95.8178Z" fill="#E47543"/>
<path d="M95.3319 101.758C93.7478 101.614 92.5895 100.705 91.5156 99.6361C92.8023 100.313 94.6307 100.019 95.3319 101.758Z" fill="#E67742"/>
<path d="M88.1234 97.9401C87.0683 97.4824 86.1448 96.8617 85.5781 95.8177C86.7365 96.1563 87.6475 96.7864 88.1234 97.9401Z" fill="#E67742"/>
<path d="M85.1586 95.8177C85.0177 95.8177 84.8768 95.8177 84.7359 95.8177C84.7766 94.9024 83.6464 94.8679 83.4648 94.1186C84.6796 94.0308 85.2431 94.5983 85.1586 95.8177Z" fill="#E67742"/>
<path d="M89.397 99.2129C88.9744 98.7897 88.5486 98.3633 88.126 97.9401C89.0527 97.9997 90.0075 98.0091 90.2455 99.2129C89.9606 99.2129 89.6788 99.2129 89.397 99.2129Z" fill="#E67742"/>
<path d="M84.7319 95.8178C85.5929 97.9056 87.4494 98.6204 89.3967 99.2129C89.9383 100.878 91.8574 100.968 92.7872 102.185C92.759 102.972 92.8686 103.596 91.6915 102.834C85.859 99.0687 80.399 94.9086 76.3197 89.1717C75.9159 88.6043 75.5026 88.015 74.9798 87.5667C73.6868 86.46 73.1233 85.1778 73.7087 83.5101C75.0518 85.3503 76.4575 87.1434 77.7192 89.0369C79.3127 91.432 81.1222 93.6139 83.3388 95.4573C83.7583 95.8052 84.2373 95.8178 84.7319 95.8178Z" fill="#E47444"/>
<path d="M108.899 29.185C108.667 29.5236 108.451 30.1255 108.201 30.1412C107.719 30.1694 107.662 29.6114 107.628 29.185C108.051 28.9217 108.473 28.9217 108.899 29.185Z" fill="#E87B3F"/>
<path d="M86.0188 59.7474C85.69 59.6753 85.1171 59.6722 85.0796 59.5248C84.8823 58.7724 85.6869 58.5436 86.0031 58.0451C88.2447 52.1327 91.5632 46.9632 97.1609 43.8032C100.636 41.8407 104.321 40.1824 108.619 40.568C110.808 40.7655 113.009 40.5585 115.234 41.0068C120.838 42.1354 125.456 44.797 129.038 49.2266C130.794 51.3991 132.507 53.65 133.43 56.3147C134.56 59.575 134.861 62.9795 134.867 66.4405C134.876 72.9768 131.949 78.234 127.973 83.0869C125.841 85.7359 122.607 86.7704 119.918 88.6043C113.541 91.4477 107.176 91.3474 100.661 88.8896C97.5053 87.6983 95.0352 85.902 93.2162 83.1214C93.8267 82.6292 94.4873 82.2373 95.2606 82.0649C97.1954 82.974 98.6355 84.6449 100.692 85.4318C101.666 85.8049 102.471 86.4162 103.623 86.2814C104.891 86.1309 106.149 86.4193 107.367 86.8018C111.061 87.9554 114.486 86.6356 117.946 85.6575C121.771 84.5728 124.724 82.0147 126.94 79.0115C129.598 75.4095 132.265 71.6507 131.661 66.5282C131.386 64.2021 131.549 61.8008 130.882 59.4966C129.507 54.7347 126.884 50.9539 122.639 48.2046C120.951 47.1105 118.919 46.3268 117.764 44.4803C117.41 44.4991 117.06 44.5148 116.706 44.5336C115.776 44.844 114.896 44.565 114.02 44.2922C108.629 42.6025 103.729 43.9443 98.9736 46.5901C95.3952 48.5808 92.7936 51.3615 91.0467 55.0701C90.4049 56.4338 89.187 57.4934 88.1852 58.6533C87.5622 59.2113 86.8484 59.5907 86.0188 59.7474Z" fill="#EF8B34"/>
<path d="M97.4547 81.0397C98.1121 80.6259 98.7195 80.1212 99.5209 79.9926C101.033 79.8171 102.445 80.2152 103.788 80.8297C110.982 84.1213 119.736 81.0554 123.94 74.4815C126.673 70.2117 127.275 65.8761 126.047 61.1737C124.438 55.0167 120.252 51.2517 114.417 49.1325C115.024 48.424 115.628 47.7186 116.236 47.0102C117.529 46.0665 118.606 46.1951 119.999 47.145C125.024 50.5746 128.859 54.9729 130.258 60.8979C131.977 68.1646 129.742 74.5975 124.632 79.9488C119.244 85.5885 112.576 87.1779 105.056 85.6919C102.292 85.1465 100.044 83.5163 97.6926 82.1056C97.3169 81.8861 97.104 81.4943 97.4547 81.0397Z" fill="#F29233"/>
<path d="M97.4561 81.0398C100.527 83.6449 103.981 85.2656 108.063 85.6011C112.631 85.9741 116.87 85.0995 120.692 82.5978C122.924 81.1369 124.884 79.2685 126.418 77.0929C128.153 74.6351 129.48 71.8388 129.978 68.9045C130.673 64.8009 130.244 60.6816 128.225 56.9103C125.986 52.7283 122.661 49.5495 118.817 46.8503C117.84 46.1638 117.111 47.2578 116.237 47.0165C116.71 46.1481 117.862 45.6873 117.768 44.4772C119.869 45.8001 122.101 46.9538 124.033 48.4899C126.753 50.6498 129.042 53.1891 130.463 56.5184C131.434 58.7881 132.464 61.2929 132.301 63.4623C132.044 66.8981 133.325 70.7509 130.651 73.8138C130.153 74.3843 130.028 75.074 129.765 75.7104C128.184 79.5475 124.959 82.0492 121.966 84.5195C120.62 85.6324 118.341 86.2563 116.25 86.6607C114.187 87.0588 112.149 87.8425 110.035 87.7955C108.357 87.7579 106.613 86.7422 105.039 87.0024C102.049 87.4977 100.136 85.2437 97.6095 84.6324C96.6766 84.4067 96.0379 82.9583 95.2646 82.068C95.9941 81.72 96.7236 81.3815 97.4561 81.0398Z" fill="#F18F34"/>
<path d="M114.417 49.1357C116.376 47.8378 117.35 50.048 118.793 50.5056C120.024 50.8975 120.953 52.2393 122.018 53.1578C126.288 56.8382 127.087 61.9262 127.415 67.0957C127.506 68.5471 126.852 70.1428 126.219 71.5222C122.848 78.8736 115.988 84.1057 106.931 82.3753C104.345 81.8799 102.041 80.626 99.5176 79.9959C100.767 79.2686 101.985 78.4817 103.384 78.0616C106.615 78.5318 109.746 79.8861 113.13 79.0021C117.156 77.9519 120.008 75.7324 122.046 71.9454C124.673 67.0674 124.46 62.572 121.717 57.9762C120.011 55.114 117.284 53.5591 114.363 52.2957C113.599 51.9665 112.917 51.7502 112.961 50.7627C113.227 50.0197 113.825 49.584 114.417 49.1357Z" fill="#F49530"/>
<path d="M112.964 50.7595C114.132 52.0574 115.857 52.5308 117.313 53.2079C120.184 54.5465 121.608 56.9228 123.148 59.3743C125.036 62.3807 125.061 66.0673 124.175 68.8292C122.338 74.5692 118.387 79.0114 111.887 79.9613C110.366 80.1839 108.725 79.5099 107.132 79.3343C106.174 79.2277 105.303 78.6102 104.242 78.9801C103.622 79.1964 103.453 78.5788 103.391 78.0584C105.369 77.0646 107.348 76.0709 109.326 75.0802C110.983 76.237 113.722 75.8985 115.957 74.4501C118.136 73.0394 119.26 70.8857 120.384 68.6975C120.656 68.1646 120.588 67.6003 120.462 67.0423C120.243 66.0767 120.193 65.0861 120.099 64.108C119.636 59.2959 115.901 55.6249 110.986 55.1766C110.438 55.1265 109.856 55.0826 109.417 54.65C110.407 53.1797 111.706 51.9884 112.964 50.7595Z" fill="#F69931"/>
<path d="M109.417 54.6531C113.18 54.3302 118.265 57.0701 119.99 60.3022C120.888 61.9888 120.2 63.9419 120.829 65.5752C121.925 68.4217 120.271 70.6757 118.972 72.4689C117.15 74.9831 114.12 76.3217 110.87 76.6759C109.699 76.8013 109.505 75.9392 109.323 75.0803C110.472 74.494 111.615 73.8921 112.773 73.3278C113.685 72.8827 113.81 72.3623 113.011 71.6914C115.688 70.5628 116.765 68.428 116.931 65.6379C117.088 62.9826 116.023 60.9512 113.807 59.6533C111.512 58.3116 109.101 57.2112 106.734 59.6941C106.296 60.1518 105.61 60.296 105.031 59.7254C106.255 57.8319 107.874 56.2739 109.417 54.6531Z" fill="#F89D2E"/>
<path d="M105.029 59.7254C105.693 59.7912 106.304 59.6784 106.745 59.1298C108.217 57.2958 110.061 57.23 111.98 58.1642C113.692 58.9981 115.458 59.5906 116.513 61.6095C118.016 64.4779 117.637 66.9702 116.3 69.6631C115.577 71.1208 114.631 71.8575 113.013 71.6914C111.892 71.3371 111.094 70.5033 110.205 69.8073C110.201 69.0048 110.937 68.8512 111.391 68.4593C112.65 67.3683 113.016 65.5814 112.196 64.2961C111.404 63.0516 110.192 63.0704 108.999 63.4277C107.81 63.782 107.033 65.6002 107.349 67.0141C107.415 67.3088 107.396 67.5658 107.199 67.7978C105.75 66.8479 104.36 65.7852 102.832 64.9827C101.21 64.1331 101.617 63.1362 102.453 62.1518C103.214 61.2552 104.165 60.5279 105.029 59.7254Z" fill="#F9A02B"/>
<path d="M88.1885 58.6502C91.0405 53.3051 94.0711 48.0761 99.8284 45.3205C105.31 42.6966 110.952 42.0194 116.709 44.5305C115.657 45.0634 114.605 45.5932 113.553 46.1262C110.169 44.8534 106.741 45.5054 103.588 46.5839C98.4321 48.3519 94.5657 51.9289 91.9391 56.7629C90.8558 57.7254 89.5284 58.2019 88.1885 58.6502Z" fill="#F18F34"/>
<path d="M91.9388 56.7629C91.1812 54.8506 93.0095 54.1829 93.8235 53.1483C98.5258 47.1669 104.674 44.4207 112.335 45.17C113.13 45.2483 113.519 45.3173 113.553 46.123C111.859 46.96 110.166 47.8002 108.472 48.6372C105.764 47.6873 103.244 48.8316 101.206 50.12C99.0956 51.4555 97.1702 53.2831 95.3419 55.092C94.3901 56.0262 93.1691 56.4024 91.9388 56.7629Z" fill="#F29133"/>
<path d="M85.154 62.2898C84.7439 61.6158 84.6531 61.0107 85.5109 60.6063C85.6174 60.6628 85.6581 60.7474 85.6299 60.8634C85.8741 61.4841 86.4658 61.6001 86.9918 61.8133C87.5208 61.854 87.8402 62.2333 88.1971 62.5531C88.6573 64.1895 88.1752 65.851 88.4225 67.5376C88.889 70.7572 90.0818 73.704 91.1118 76.7261C90.5169 77.4252 89.9221 78.1274 89.3273 78.8265C87.1827 79.8234 88.5039 77.4471 87.6962 77.143C86.7037 76.328 86.5503 75.121 86.2185 73.9956C85.2104 70.5785 84.0395 67.1834 85.1728 63.5437C85.2949 63.1613 85.1603 62.7099 85.154 62.2898Z" fill="#EF8B34"/>
<path d="M107.205 67.7947C105.943 65.2867 107.236 62.8603 109.853 62.6942C111.365 62.6001 112.546 63.0014 112.94 64.5375C113.325 66.0423 113.525 67.6191 111.979 68.7132C111.412 69.1145 110.795 69.4405 110.204 69.801C109.111 69.2775 108.04 68.7132 107.205 67.7947Z" fill="#FAA32B"/>
<path d="M93.2201 83.1182C94.2282 83.6135 94.9921 84.3001 95.6871 85.2406C97.3025 87.4287 99.9198 88.0965 102.315 88.9711C106.983 90.6734 111.763 90.4665 116.538 89.4257C117.671 89.178 118.645 88.2783 119.919 88.6012C119.509 89.3661 118.954 89.9179 118.009 89.874C117.336 89.8426 116.813 90.0777 116.528 90.7235C109.19 92.6954 102.493 90.7204 96.0972 87.2563C94.463 86.3691 93.0448 85.0807 91.5264 83.9772C92.0805 83.67 92.4938 83.0837 93.2201 83.1182Z" fill="#EE8936"/>
<path d="M91.1155 76.7261C90.1387 75.8107 89.9634 74.5724 89.5 73.4219C88.6172 71.2306 88.4011 69.0205 87.8658 66.8198C87.4839 65.246 87.9128 63.9576 88.2039 62.5563C88.9521 62.9137 89.7536 63.1989 90.1637 64.0109C90.3484 65.5909 90.8306 67.1176 90.6396 68.7634C90.4987 69.9892 91.2689 71.0237 91.9169 72.0206C92.3082 72.6225 92.8185 73.3247 92.2769 73.9235C91.5037 74.7762 92.8029 74.5693 92.7058 75.0082C92.374 75.7668 91.8355 76.328 91.1155 76.7261Z" fill="#F19034"/>
<path d="M95.339 55.092C95.3296 54.1923 95.9682 53.675 96.585 53.2549C97.806 52.4242 98.836 51.4179 99.8691 50.3677C101.985 48.2109 104.963 48.2955 107.652 47.6716C108.303 47.5212 108.407 48.1325 108.469 48.6372C104.199 51.0041 99.7689 53.048 95.339 55.092Z" fill="#F39432"/>
<path d="M92.7027 75.0051C92.3427 74.8546 91.9795 74.7072 91.6195 74.5568C92.6558 72.8514 90.912 71.9799 90.4987 70.7071C89.7912 68.522 89.8882 66.2618 90.1637 64.0078C91.2219 64.6849 92.2801 65.362 93.3351 66.0392C93.5605 68.2712 93.6576 70.5347 94.96 72.4908C94.2086 73.331 93.4541 74.168 92.7027 75.0051Z" fill="#F29233"/>
<path d="M94.9597 72.494C92.5866 70.8042 92.8652 68.4468 93.3348 66.0423C93.7637 66.268 94.2114 66.4624 94.6153 66.7257C98.416 69.2054 98.4191 69.312 94.9597 72.494Z" fill="#F49533"/>
<path d="M86.9963 61.8133C86.2793 61.8729 85.5843 61.9042 85.6344 60.8634C86.2136 60.9982 86.6425 61.3525 86.9963 61.8133Z" fill="#EE8936"/>
<path d="M119.921 88.6012C120.556 87.1936 121.928 86.924 123.177 86.3785C124.964 85.5948 126.101 83.7859 127.976 83.0869C128.155 85.2405 126.132 85.2625 124.993 86.0807C123.452 87.1811 121.843 88.2313 119.921 88.6012Z" fill="#EE8936"/>
<path d="M85.154 62.2898C85.7989 62.6096 86.1902 63.108 85.849 63.8102C84.2993 67.0298 85.6893 70.0268 86.5033 73.0677C86.8696 74.4345 87.2954 75.7856 87.6961 77.1462C87.6272 77.7418 87.4143 77.9205 86.976 77.3844C85.9711 76.1587 85.4795 74.6915 85.1821 73.1774C84.5403 69.9139 83.6669 66.6661 84.1396 63.2898C84.2147 62.7788 84.7063 62.5124 85.154 62.2898Z" fill="#EE8936"/>
</g>
<defs>
<clipPath id="clip0_1505_13048">
<rect width="139" height="79" fill="white" transform="translate(0 27)"/>
</clipPath>
</defs>
</svg>
