<svg width="106" height="112" viewBox="0 0 106 112" fill="none" xmlns="http://www.w3.org/2000/svg">
<mask id="mask0_1505_13238" style="mask-type:alpha" maskUnits="userSpaceOnUse" x="0" y="0" width="87" height="87">
<rect x="0.5" y="0.5" width="86" height="86" rx="4.5" fill="white" stroke="white"/>
</mask>
<g mask="url(#mask0_1505_13238)">
<line x1="-19.7925" y1="79.6716" x2="76.4091" y2="-16.53" stroke="#FF4949" stroke-width="2" stroke-linecap="round"/>
<line x1="11.5273" y1="110.774" x2="107.729" y2="14.5725" stroke="#FF4949" stroke-width="2" stroke-linecap="round"/>
<line x1="-44.1523" y1="54.0066" x2="52.0492" y2="-42.195" stroke="#FF4949" stroke-width="2" stroke-linecap="round"/>
<line x1="-38.4976" y1="59.8791" x2="57.704" y2="-36.3225" stroke="#FF4949" stroke-width="2" stroke-linecap="round"/>
<line x1="-12.8325" y1="85.7616" x2="83.3691" y2="-10.44" stroke="#FF4949" stroke-width="2" stroke-linecap="round"/>
<line x1="18.4873" y1="116.864" x2="114.689" y2="20.6625" stroke="#FF4949" stroke-width="2" stroke-linecap="round"/>
<line x1="-32.8423" y1="67.2741" x2="63.3593" y2="-28.9275" stroke="#FF4949" stroke-width="2" stroke-linecap="round"/>
<line x1="-5.22021" y1="90.9816" x2="90.9814" y2="-5.21998" stroke="#FF4949" stroke-width="2" stroke-linecap="round"/>
<line x1="26.1001" y1="122.084" x2="122.302" y2="25.8825" stroke="#FF4949" stroke-width="2" stroke-linecap="round"/>
<line x1="-25.4473" y1="72.929" x2="70.7543" y2="-23.2725" stroke="#FF4949" stroke-width="2" stroke-linecap="round"/>
<line x1="5.87256" y1="104.032" x2="102.074" y2="7.83001" stroke="#FF4949" stroke-width="2" stroke-linecap="round"/>
<line x1="0.652344" y1="97.2891" x2="96.8539" y2="1.08752" stroke="#FF4949" stroke-width="2" stroke-linecap="round"/>
<line x1="31.9727" y1="128.392" x2="128.174" y2="32.19" stroke="#FF4949" stroke-width="2" stroke-linecap="round"/>
<line x1="38.2798" y1="131.872" x2="134.481" y2="35.67" stroke="#FF4949" stroke-width="2" stroke-linecap="round"/>
</g>
<g clip-path="url(#clip0_1505_13238)">
<path d="M76.5631 60.3759H52.418V88.0703H76.5631V60.3759Z" fill="#FFDAB8"/>
<path opacity="0.2" d="M76.5675 60.3758V63.5628C76.0957 63.9153 75.5703 64.2874 75.0402 64.6644C72.0877 66.7107 68.6683 68.8158 68.6683 68.8158C66.46 70.0936 62.8995 70.0936 60.6912 68.8158C60.6912 68.8158 57.0529 66.5736 54.0421 64.4685C53.4779 64.0573 52.9282 63.6608 52.4224 63.2838V60.3709H76.5675V60.3758Z" fill="black"/>
<path d="M81.461 54.6872C81.1546 56.1607 79.5397 58.8435 78.4696 59.901C77.7352 60.6157 76.3538 61.6487 74.8459 62.7013C71.8983 64.7378 68.4692 66.8478 68.4692 66.8478C66.2755 68.1305 62.7101 68.1305 60.497 66.8478C60.497 66.8478 56.849 64.6105 53.8479 62.4907C52.4616 61.5165 51.2067 60.5668 50.5111 59.8961C49.441 58.8386 47.831 56.1509 47.5197 54.6823C46.9117 51.789 46.9215 27.5557 47.1841 22.5426C47.3446 19.3458 49.4167 15.1845 51.7612 14.6656C54.1008 14.1417 55.9978 13.7305 55.9978 13.7305C60.6964 12.6877 68.2892 12.6877 72.9684 13.7305C74.52 14.0683 75.9695 14.3865 77.2098 14.6656C79.5592 15.1894 81.6264 19.3458 81.7918 22.5426C82.0593 27.5606 82.069 51.7938 81.461 54.6872Z" fill="#FFDAB8"/>
<path d="M64.4902 79.7281H44.2363V112H64.4902H84.7489V79.7281H64.4902Z" fill="#F0F0F0"/>
<path d="M69.5152 112H59.4175L62.1608 87.8157H66.767L69.5152 112Z" fill="#FD6E4C"/>
<path d="M66.8206 87.8157H62.1608L59.4175 79.6058L64.5199 79.7282L69.5687 79.6058L66.8206 87.8157Z" fill="#FD3A0B"/>
<path d="M106 84.7461V112H23V84.7461C23 81.3241 25.6169 77.6818 28.8466 76.5998L37.7575 73.0799L40.243 72.2525L45.4038 71.151L45.4232 71.1315L45.8561 71.0531L48.5751 70.4608H48.5946L48.6724 70.6566V70.6762L49.8641 73.7653V73.7849L50.0781 74.2793L50.6083 75.6403V75.6599L51.3914 77.6671C51.3914 77.6867 51.3914 77.6867 51.3914 77.6867C51.6054 80.345 52.1551 83.1159 53.1133 86.1708C53.2689 86.6603 53.4246 87.1352 53.5802 87.6248C53.7359 88.08 53.8915 88.55 54.052 89.0004C57.3547 98.586 62.0485 108.225 64.4368 111.672C64.534 111.789 64.6119 111.912 64.6897 112.005C64.7675 111.907 64.8453 111.789 64.9426 111.672C67.3066 108.225 71.6891 98.586 74.9334 89.0004C75.089 88.55 75.2447 88.0751 75.4003 87.6248C75.556 87.1303 75.7165 86.6603 75.8673 86.1708C76.9811 82.6655 77.5308 79.5176 77.6475 76.5264L78.2896 74.7934L78.8003 73.7506L79.0532 73.217L80.4054 70.4608L83.1195 71.0335L83.5476 71.1315L88.7472 72.2525L91.2085 73.0799L100.144 76.5998C103.378 77.6818 106 81.3192 106 84.7461Z" fill="#1DA8B5"/>
<path d="M53.848 12.5409C46.834 20.6725 68.8147 33.6116 79.4474 28.1089C84.7103 25.3869 83.9418 16.6336 79.1556 13.4759C73.8927 10 57.5738 8.22294 53.848 12.5409Z" fill="#FF9F00"/>
<path d="M53.8478 12.5409C45.399 14.2445 44.8883 24.1337 46.8047 35.7265C48.906 28.9069 50.8662 21.9747 53.8478 20.3836C57.1408 18.631 58.2498 11.6548 53.8478 12.5409Z" fill="#FF9F00"/>
<path d="M75.6244 11.8604C84.4138 14.1074 84.4867 23.1937 82.1812 35.7216C80.075 28.902 78.611 21.2893 75.6244 19.7031C72.3363 17.9505 71.2711 10.7491 75.6244 11.8604Z" fill="#FF9F00"/>
<path opacity="0.3" d="M79.1747 76.7369C79.3692 80.5555 78.5472 84.5699 76.7864 87.7765C76.4362 88.4864 76.0082 89.1571 75.5364 89.7641C75.3613 89.5291 75.1618 89.2697 74.9284 88.9955C74.5587 88.5451 74.1258 88.0507 73.6199 87.5415C70.5702 84.3545 65.7402 80.5163 65.3705 80.2226C65.3511 80.2226 65.3511 80.2226 65.3511 80.203C72.3699 78.5336 75.5364 74.95 76.553 68.2186C76.7864 68.5319 76.9859 68.8697 77.1804 69.2222C77.9441 70.5831 78.4888 72.1155 78.805 73.7506C79.019 74.7101 79.1358 75.7137 79.1747 76.7369Z" fill="black"/>
<path d="M76.5531 66.2407C75.5462 72.982 71.5139 78.0391 64.4951 79.7232C64.4951 79.7232 73.2017 84.4426 75.5462 87.801C79.8995 82.0878 80.5708 71.9735 76.5531 66.2407Z" fill="#E6E6E6"/>
<path opacity="0.3" d="M84.3703 86.5771C84.3703 86.5771 88.5777 88.7018 90.6887 89.96C87.3034 95.9032 78.5432 106.355 64.6855 112C64.7634 111.902 64.8412 111.785 64.9385 111.667C67.4775 108.088 73.363 97.7538 76.7873 87.7765C76.9867 87.2429 77.1618 86.6946 77.3369 86.1659C77.7455 84.8832 78.0179 83.6446 78.2173 82.4452C78.6454 79.7282 78.587 77.2069 78.2951 74.7885L78.8059 73.7457L79.0588 73.2121L80.411 70.4559L83.1251 71.0287L83.5532 71.1266C87.6001 75.4739 90.3969 81.3633 90.6887 84.4475C88.5777 84.8832 84.3703 86.5771 84.3703 86.5771Z" fill="black"/>
<path d="M82.9062 86.5771C82.9062 86.5771 87.1088 88.7018 89.2198 89.96C85.8587 95.9033 78.5627 105.763 64.6855 112C64.7634 111.902 64.8412 111.785 64.9385 111.667C67.3024 108.221 71.6849 98.5812 74.9292 88.9956C75.0849 88.5452 75.2405 88.0703 75.3962 87.6199C75.5518 87.1254 75.7123 86.6555 75.8631 86.1659C76.977 82.6606 77.5266 79.5128 77.6434 76.5216C77.7601 74.0003 77.585 71.621 77.1715 69.2173C77.0159 68.2724 76.8408 67.308 76.6073 66.3436C76.6073 66.2995 76.5879 66.2848 76.5879 66.2457C79.1074 67.0681 81.3011 68.8599 83.1154 71.0287C86.7732 75.3956 88.9425 81.3388 89.2149 84.4475C87.1136 84.8833 82.9062 86.5771 82.9062 86.5771Z" fill="#0B929F"/>
<path opacity="0.3" d="M63.6288 80.1981C63.6288 80.2177 63.6288 80.2177 63.6093 80.2177C63.2397 80.5163 58.3319 84.4279 55.2627 87.6346C54.7908 88.1094 54.3823 88.5598 54.0515 88.9955C53.818 89.2697 53.6235 89.5291 53.4484 89.7641C52.9814 89.1571 52.5485 88.4864 52.1983 87.7765C50.4375 84.5699 49.6155 80.5555 49.8149 76.7369C49.8344 75.9145 49.9317 75.0822 50.0873 74.2793C50.1068 74.1031 50.1457 73.922 50.1895 73.7506C50.5008 72.1155 51.0504 70.5831 51.814 69.2222C52.0086 68.8697 52.2032 68.5319 52.4366 68.2186C53.4435 74.9451 56.61 78.5287 63.6288 80.1981Z" fill="black"/>
<path d="M52.4368 66.2407C53.4388 72.982 57.4759 78.0391 64.4947 79.7232C64.4947 79.7232 55.7881 84.4426 53.4388 87.801C49.0855 82.0878 48.4142 71.9735 52.4368 66.2407Z" fill="#E6E6E6"/>
<path opacity="0.3" d="M64.6852 112C50.8227 106.35 41.6735 95.8983 38.2881 89.96C40.3991 88.7018 44.6016 86.5771 44.6016 86.5771C44.6016 86.5771 40.3991 84.8832 38.2881 84.4524C38.5799 81.3633 41.3768 75.4983 45.4042 71.151L45.4236 71.1315L45.8565 71.0335L48.5755 70.4608L48.6728 70.6566V70.6762L49.9229 73.2121L50.1807 73.7457L50.6865 74.7885C50.6476 75.0675 50.6282 75.3613 50.6087 75.6354C50.6087 75.6354 50.5892 75.6354 50.6087 75.655C50.3752 77.8042 50.3947 80.0415 50.7644 82.4452C50.9589 83.6446 51.2362 84.8832 51.6447 86.1659C51.8198 86.6946 51.995 87.2478 52.1944 87.7765C55.6576 97.7538 61.8738 108.088 64.4372 111.667C64.5296 111.785 64.6074 111.902 64.6852 112Z" fill="black"/>
<path d="M64.6855 112C50.8036 105.763 43.1184 95.8983 39.7573 89.96C41.8683 88.7018 46.0708 86.5771 46.0708 86.5771C46.0708 86.5771 41.8683 84.8832 39.7573 84.4524C40.0492 81.3633 42.2039 75.42 45.8568 71.0531V71.0336C47.676 68.8697 49.8648 67.0779 52.3844 66.2505C52.3844 66.2897 52.3649 66.3044 52.3649 66.3485C52.1314 67.3129 51.9563 68.2773 51.8007 69.2222C51.3289 71.9784 51.1538 74.7297 51.3872 77.6671C51.3872 77.6867 51.3872 77.6867 51.3872 77.6867C51.6013 80.345 52.1509 83.1159 53.1091 86.1708C53.2648 86.6603 53.4204 87.1352 53.5761 87.6248C53.7317 88.0801 53.8874 88.55 54.0479 89.0004C57.3506 98.586 62.0444 108.225 64.4326 111.672C64.5299 111.785 64.6077 111.902 64.6855 112Z" fill="#0B929F"/>
</g>
<defs>
<clipPath id="clip0_1505_13238">
<rect width="83" height="102" fill="white" transform="translate(23 10)"/>
</clipPath>
</defs>
</svg>
